# xmcd CD database file generated by OrangeCD 5.1
#
# Track frame offsets:
#	150
#	23114
#	43185
#	71685
#	86861
#	110530
#	138172
#	167777
#
# Disc length: 2560 seconds
#
# Revision: 2
# Processed by: cddbd v1.4PL0 Copyright (c) Steve Scherf et al.
# Submitted via: OrangeCD 5.1
#
DISCID=6c09fe08
DTITLE=Hopkins, Lightnin' - Complete Prestige/Bluesville Recordings - Disc 7
DYEAR=1900
DGENRE=Blues
TTITLE0=I Growed Up With The Blues
TTITLE1=My Family
TTITLE2=I Learn About The Blues
TTITLE3=I First Come Into Houston
TTITLE4=I Meet Texas Alexander
TTITLE5=They Was Hard Times
TTITLE6=I Do My First Record And Get My Name
TTITLE7=My Thoughts On The Blues
EXTD=
EXTT0=
EXTT1=
EXTT2=
EXTT3=
EXTT4=
EXTT5=
EXTT6=
EXTT7=
PLAYORDER=
